<svg width="124" height="19" viewBox="0 0 124 19" fill="none" xmlns="http://www.w3.org/2000/svg">
<path d="M0.96768 4.70555C0.96768 3.07422 1.37972 1.89698 2.20379 1.17381C3.02786 0.450649 4.36487 0.0890665 6.21483 0.0890665C7.5098 0.0890665 8.5525 0.425422 9.34293 1.09813C10.1334 1.77084 10.7052 2.79673 11.0583 4.17579L8.71227 5.94165H7.47616L10.2006 3.89829C9.84747 2.7715 9.33452 1.98107 8.66181 1.52699C8.00592 1.07291 7.19026 0.845867 6.21483 0.845867C5.54212 0.845867 4.97031 0.887912 4.49941 0.972C4.04533 1.05609 3.58284 1.22427 3.11195 1.47653C2.65787 1.71198 2.3131 2.09879 2.07765 2.63696C1.8422 3.17513 1.72448 3.86466 1.72448 4.70555C1.72448 5.44553 2.06084 6.10142 2.73355 6.67323C3.42308 7.24503 4.25556 7.73275 5.23099 8.13637C6.20642 8.54 7.18185 8.95204 8.15728 9.37248C9.14953 9.79292 9.98201 10.3311 10.6547 10.987C11.3442 11.6429 11.689 12.3997 11.689 13.2574C11.689 14.9392 11.2686 16.1921 10.4277 17.0162C9.60361 17.8402 8.18251 18.2523 6.16437 18.2523C4.51623 18.2523 3.22126 17.9243 2.27947 17.2684C1.33767 16.5957 0.690187 15.5614 0.337013 14.1655L1.04336 13.8628C1.37972 15.2251 1.95152 16.1753 2.75877 16.7134C3.58284 17.2348 4.71804 17.4955 6.16437 17.4955C7.77888 17.4955 8.97294 17.1843 9.74656 16.5621C10.537 15.9398 10.9322 14.8383 10.9322 13.2574C10.9322 12.5174 10.5874 11.8615 9.89792 11.2897C9.22521 10.7179 8.39273 10.2302 7.40048 9.82656C6.42505 9.42293 5.44962 9.0109 4.47419 8.59045C3.49876 8.17001 2.66628 7.63184 1.97675 6.97595C1.30404 6.32005 0.96768 5.56325 0.96768 4.70555ZM16.0922 17.2432H25.3757L20.0276 2.53605L14.4021 18H13.5948L20.0276 0.316107L26.4604 18H16.0922V17.2432ZM38.4657 8.76704H30.9734L38.6928 1.09813H30.1662V18H29.4094V0.341333H40.5343L32.815 8.01024H38.4657V8.76704ZM52.3355 8.76704H44.8432L52.5625 1.09813H44.0359V17.2432H53.8239V18H43.2791V0.341333H54.4041L46.6847 8.01024H52.3355V8.76704ZM57.2842 4.70555C57.2842 3.07422 57.6963 1.89698 58.5203 1.17381C59.3444 0.450649 60.6814 0.0890665 62.5314 0.0890665C63.8264 0.0890665 64.8691 0.425422 65.6595 1.09813C66.4499 1.77084 67.0217 2.79673 67.3749 4.17579L65.0288 5.94165H63.7927L66.5172 3.89829C66.164 2.7715 65.6511 1.98107 64.9784 1.52699C64.3225 1.07291 63.5068 0.845867 62.5314 0.845867C61.8587 0.845867 61.2869 0.887912 60.816 0.972C60.3619 1.05609 59.8994 1.22427 59.4285 1.47653C58.9744 1.71198 58.6297 2.09879 58.3942 2.63696C58.1588 3.17513 58.041 3.86466 58.041 4.70555C58.041 5.44553 58.3774 6.10142 59.0501 6.67323C59.7396 7.24503 60.5721 7.73275 61.5475 8.13637C62.523 8.54 63.4984 8.95204 64.4738 9.37248C65.4661 9.79292 66.2986 10.3311 66.9713 10.987C67.6608 11.6429 68.0056 12.3997 68.0056 13.2574C68.0056 14.9392 67.5851 16.1921 66.7442 17.0162C65.9202 17.8402 64.4991 18.2523 62.4809 18.2523C60.8328 18.2523 59.5378 17.9243 58.596 17.2684C57.6542 16.5957 57.0067 15.5614 56.6536 14.1655L57.3599 13.8628C57.6963 15.2251 58.2681 16.1753 59.0753 16.7134C59.8994 17.2348 61.0346 17.4955 62.4809 17.4955C64.0954 17.4955 65.2895 17.1843 66.0631 16.5621C66.8536 15.9398 67.2488 14.8383 67.2488 13.2574C67.2488 12.5174 66.904 11.8615 66.2145 11.2897C65.5418 10.7179 64.7093 10.2302 63.717 9.82656C62.7416 9.42293 61.7662 9.0109 60.7907 8.59045C59.8153 8.17001 58.9828 7.63184 58.2933 6.97595C57.6206 6.32005 57.2842 5.56325 57.2842 4.70555ZM82.449 0.341333V1.09813H76.5208V18H75.764V1.09813H69.8357V0.341333H82.449ZM85.7858 17.2432H95.0693L89.7212 2.53605L84.0957 18H83.2884L89.7212 0.316107L96.154 18H85.7858V17.2432ZM109.597 0.341333V1.09813H103.669V18H102.912V1.09813H96.9839V0.341333H109.597ZM121.536 8.76704H114.044L121.763 1.09813H113.237V17.2432H123.025V18H112.48V0.341333H123.605L115.886 8.01024H121.536V8.76704Z" fill="black"/>
</svg>
