<svg width="136" height="46" viewBox="0 0 136 46" fill="none" xmlns="http://www.w3.org/2000/svg">
<path d="M2.11956 10.6794C2.11956 8.92218 2.56339 7.65406 3.45107 6.87508C4.33875 6.0961 5.77896 5.70661 7.7717 5.70661C9.16662 5.70661 10.2898 6.06893 11.1413 6.79356C11.9927 7.5182 12.6086 8.62326 12.9891 10.1088L10.4619 12.0109H9.13039L12.0652 9.80985C11.6847 8.59609 11.1322 7.74464 10.4076 7.25551C9.70104 6.76639 8.82242 6.52182 7.7717 6.52182C7.04707 6.52182 6.43113 6.56711 5.92389 6.65769C5.43476 6.74827 4.93657 6.92943 4.42933 7.20117C3.9402 7.45479 3.56882 7.87145 3.3152 8.45116C3.06158 9.03087 2.93477 9.77362 2.93477 10.6794C2.93477 11.4765 3.29709 12.183 4.02172 12.799C4.76447 13.4149 5.66121 13.9403 6.71193 14.375C7.76265 14.8098 8.81337 15.2537 9.86409 15.7066C10.9329 16.1595 11.8297 16.7392 12.5543 17.4457C13.297 18.1522 13.6684 18.9674 13.6684 19.8913C13.6684 21.7029 13.2155 23.0525 12.3097 23.9402C11.422 24.8279 9.89126 25.2717 7.71736 25.2717C5.942 25.2717 4.54708 24.9185 3.53259 24.212C2.5181 23.4873 1.82064 22.3732 1.44021 20.8696L2.20108 20.5435C2.56339 22.0109 3.17933 23.0344 4.04889 23.6141C4.93657 24.1757 6.15939 24.4565 7.71736 24.4565C9.45648 24.4565 10.7427 24.1214 11.576 23.4511C12.4275 22.7808 12.8532 21.5942 12.8532 19.8913C12.8532 19.0942 12.4818 18.3877 11.7391 17.7718C11.0144 17.1558 10.1177 16.6305 9.04887 16.1957C7.99815 15.7609 6.94743 15.3171 5.89671 14.8642C4.84599 14.4113 3.94926 13.8316 3.20651 13.1251C2.48187 12.4185 2.11956 11.6033 2.11956 10.6794ZM18.4115 24.1848H28.4115L22.6506 8.34247L16.5909 25H15.7213L22.6506 5.95117L29.5799 25H18.4115V24.1848ZM42.5119 15.0544H34.4413L42.7565 6.79356H33.5717V25H32.7565V5.97835H44.7402L36.425 14.2392H42.5119V15.0544ZM57.4522 15.0544H49.3816L57.6967 6.79356H48.512V24.1848H59.0554V25H47.6968V5.97835H59.6804L51.3653 14.2392H57.4522V15.0544ZM62.7829 10.6794C62.7829 8.92218 63.2268 7.65406 64.1144 6.87508C65.0021 6.0961 66.4423 5.70661 68.4351 5.70661C69.83 5.70661 70.9532 6.06893 71.8046 6.79356C72.6561 7.5182 73.272 8.62326 73.6524 10.1088L71.1253 12.0109H69.7938L72.7285 9.80985C72.3481 8.59609 71.7956 7.74464 71.0709 7.25551C70.3644 6.76639 69.4858 6.52182 68.4351 6.52182C67.7104 6.52182 67.0945 6.56711 66.5872 6.65769C66.0981 6.74827 65.5999 6.92943 65.0927 7.20117C64.6036 7.45479 64.2322 7.87145 63.9786 8.45116C63.7249 9.03087 63.5981 9.77362 63.5981 10.6794C63.5981 11.4765 63.9604 12.183 64.6851 12.799C65.4278 13.4149 66.3246 13.9403 67.3753 14.375C68.426 14.8098 69.4767 15.2537 70.5274 15.7066C71.5963 16.1595 72.493 16.7392 73.2177 17.4457C73.9604 18.1522 74.3318 18.9674 74.3318 19.8913C74.3318 21.7029 73.8789 23.0525 72.9731 23.9402C72.0854 24.8279 70.5546 25.2717 68.3807 25.2717C66.6054 25.2717 65.2104 24.9185 64.196 24.212C63.1815 23.4873 62.484 22.3732 62.1036 20.8696L62.8644 20.5435C63.2268 22.0109 63.8427 23.0344 64.7123 23.6141C65.5999 24.1757 66.8228 24.4565 68.3807 24.4565C70.1198 24.4565 71.4061 24.1214 72.2394 23.4511C73.0908 22.7808 73.5166 21.5942 73.5166 19.8913C73.5166 19.0942 73.1452 18.3877 72.4024 17.7718C71.6778 17.1558 70.7811 16.6305 69.7122 16.1957C68.6615 15.7609 67.6108 15.3171 66.5601 14.8642C65.5094 14.4113 64.6126 13.8316 63.8699 13.1251C63.1452 12.4185 62.7829 11.6033 62.7829 10.6794ZM89.89 5.97835V6.79356H83.5042V25H82.689V6.79356H76.3031V5.97835H89.89ZM93.4844 24.1848H103.484L97.7235 8.34247L91.6638 25H90.7942L97.7235 5.95117L104.653 25H93.4844V24.1848ZM119.134 5.97835V6.79356H112.748V25H111.933V6.79356H105.547V5.97835H119.134ZM131.994 15.0544H123.924L132.239 6.79356H123.054V24.1848H133.598V25H122.239V5.97835H134.223L125.907 14.2392H131.994V15.0544Z" fill="black"/>
<path d="M9.46768 40.3439H9.04066V43.043H9.56436V43.1961H6.94587V43.043H7.46957V37.7093H6.94587V37.5562H9.37905C10.0773 37.5562 10.5715 37.5938 10.8615 37.669C11.1569 37.7389 11.3637 37.8248 11.4819 37.9269C11.7397 38.1363 11.8686 38.4694 11.8686 38.9259C11.8686 39.3825 11.7558 39.7101 11.5302 39.9089C11.3047 40.1022 10.9609 40.2177 10.499 40.2553V40.2795C10.934 40.3386 11.2375 40.4675 11.4094 40.6662C11.5813 40.8649 11.6672 41.198 11.6672 41.6653V42.0923C11.6672 42.3716 11.6806 42.5596 11.7075 42.6563C11.7397 42.7529 11.8042 42.8013 11.9009 42.8013C11.9975 42.8013 12.0727 42.7583 12.1265 42.6724C12.1855 42.5811 12.2392 42.3931 12.2876 42.1084L12.4246 42.1245C12.3655 42.5811 12.2607 42.8872 12.1103 43.043C11.9653 43.1988 11.6726 43.2766 11.2321 43.2766C10.7917 43.2766 10.4775 43.1746 10.2895 42.9705C10.1069 42.761 10.0155 42.3716 10.0155 41.8022V41.2141C10.0155 40.9133 9.97526 40.6931 9.89469 40.5534C9.8195 40.4138 9.67716 40.3439 9.46768 40.3439ZM9.04066 37.7093V40.1909H9.29848C9.60465 40.1909 9.83024 40.0969 9.97526 39.9089C10.1257 39.7209 10.2009 39.4147 10.2009 38.9904V38.7567C10.2009 38.3324 10.1283 38.0531 9.98332 37.9188C9.84367 37.7792 9.61807 37.7093 9.30654 37.7093H9.04066ZM19.6904 37.5562H23.88L23.9606 39.1515H23.8156C23.59 38.609 23.3536 38.2384 23.1066 38.0397C22.8595 37.8356 22.4969 37.7335 22.0189 37.7335H21.7369V40.2231H22.0108C22.2633 40.2231 22.4754 40.1291 22.6473 39.9411C22.8192 39.7477 22.94 39.4899 23.0099 39.1676H23.1307V41.5525H22.9938C22.8971 41.1496 22.7655 40.8623 22.599 40.6904C22.4378 40.5185 22.2149 40.4326 21.9302 40.4326H21.7369V43.0188H22.043C22.5372 43.0188 22.9562 42.8711 23.2999 42.5757C23.6491 42.2803 23.8881 41.9016 24.017 41.4397H24.1781L24.1137 43.1961H19.6904V43.0188H20.1658V37.7335H19.6904V37.5562ZM34.8798 43.043L34.2916 41.3027H32.6963L32.076 43.043H32.6802V43.1961H31.4475V43.043H31.8262L33.8807 37.5079H34.5414L36.5717 43.043H36.9423V43.1961H34.3077V43.043H34.8798ZM33.5262 39.0145L32.7688 41.1255H34.2271L33.5262 39.0145ZM44.0915 37.5562H46.992V37.7335H46.1379V43.0188H46.428C46.8846 43.0188 47.2471 42.8792 47.5157 42.5999C47.7896 42.3206 48.0662 41.8909 48.3455 41.3108H48.5147L48.3616 43.1961H44.0915V43.0188H44.5669V37.7335H44.0915V37.5562ZM64.1966 37.5562H68.3862L68.4667 39.1515H68.3217C68.0961 38.609 67.8598 38.2384 67.6127 38.0397C67.3656 37.8356 67.0031 37.7335 66.525 37.7335H66.243V40.2231H66.517C66.7694 40.2231 66.9816 40.1291 67.1535 39.9411C67.3254 39.7477 67.4462 39.4899 67.516 39.1676H67.6369V41.5525H67.4999C67.4032 41.1496 67.2716 40.8623 67.1051 40.6904C66.944 40.5185 66.7211 40.4326 66.4364 40.4326H66.243V43.0188H66.5492C67.0434 43.0188 67.4623 42.8711 67.8061 42.5757C68.1552 42.2803 68.3942 41.9016 68.5231 41.4397H68.6843L68.6198 43.1961H64.1966V43.0188H64.6719V37.7335H64.1966V37.5562ZM78.5238 43.1074C78.7924 43.1074 79.0287 43.0349 79.2328 42.8899C79.4423 42.7449 79.5471 42.5274 79.5471 42.2373C79.5471 41.9419 79.4343 41.7163 79.2087 41.5605C78.9884 41.4048 78.6715 41.2705 78.2579 41.1577C77.8497 41.0395 77.5516 40.9375 77.3636 40.8515C77.181 40.7656 77.0064 40.6528 76.8399 40.5131C76.5069 40.2338 76.3404 39.8014 76.3404 39.216C76.3404 38.7379 76.5096 38.327 76.848 37.9833C77.1918 37.6395 77.6591 37.4676 78.2499 37.4676C78.5346 37.4676 78.83 37.5106 79.1361 37.5965C79.4477 37.6771 79.641 37.7174 79.7162 37.7174C79.7914 37.7174 79.8586 37.6637 79.9177 37.5562H80.0063L80.0627 39.1837H79.9338C79.676 38.7164 79.4047 38.3431 79.12 38.0638C78.8407 37.7792 78.5346 37.6368 78.2015 37.6368C77.8739 37.6368 77.6188 37.7147 77.4361 37.8705C77.2535 38.0209 77.1622 38.225 77.1622 38.4828C77.1622 38.7352 77.2696 38.9313 77.4845 39.0709C77.7047 39.2052 77.9733 39.3153 78.2902 39.4013C78.6071 39.4872 78.8139 39.5463 78.9106 39.5785C79.0126 39.6108 79.1361 39.6564 79.2812 39.7155C79.4316 39.7692 79.5524 39.8283 79.6437 39.8927C79.7404 39.9518 79.8398 40.0297 79.9418 40.1264C80.0493 40.2177 80.1325 40.3198 80.1916 40.4326C80.3366 40.6904 80.4091 40.9965 80.4091 41.351C80.4091 41.9311 80.2265 42.3984 79.8613 42.7529C79.5014 43.1021 79.026 43.2766 78.4352 43.2766C78.129 43.2766 77.7772 43.2364 77.3797 43.1558C76.9876 43.0752 76.7701 43.0349 76.7271 43.0349C76.6519 43.0349 76.5794 43.1155 76.5096 43.2766H76.3968L76.3162 41.3591H76.4532C76.6895 41.8264 76.9903 42.2346 77.3556 42.5838C77.7262 42.9329 78.1156 43.1074 78.5238 43.1074ZM92.4275 37.5562L92.5081 39.5785H92.355C92.1187 38.8642 91.9092 38.3781 91.7266 38.1202C91.5439 37.857 91.2808 37.7254 90.937 37.7254H90.8403V43.0269H91.5251V43.1961H88.5844V43.0269H89.2692V37.7254H89.1645C88.8207 37.7254 88.5548 37.8624 88.3668 38.1363C88.1788 38.4049 87.9721 38.8856 87.7465 39.5785H87.5934L87.6739 37.5562H92.4275ZM102.363 43.043L101.775 41.3027H100.179L99.5591 43.043H100.163V43.1961H98.9306V43.043H99.3093L101.364 37.5079H102.024L104.055 43.043H104.425V43.1961H101.791V43.043H102.363ZM101.009 39.0145L100.252 41.1255H101.71L101.009 39.0145ZM115.727 37.5562L115.808 39.5785H115.655C115.418 38.8642 115.209 38.3781 115.026 38.1202C114.843 37.857 114.58 37.7254 114.237 37.7254H114.14V43.0269H114.825V43.1961H111.884V43.0269H112.569V37.7254H112.464C112.12 37.7254 111.854 37.8624 111.666 38.1363C111.478 38.4049 111.272 38.8856 111.046 39.5785H110.893L110.973 37.5562H115.727ZM123.201 37.5562H127.39L127.471 39.1515H127.326C127.1 38.609 126.864 38.2384 126.617 38.0397C126.37 37.8356 126.007 37.7335 125.529 37.7335H125.247V40.2231H125.521C125.774 40.2231 125.986 40.1291 126.158 39.9411C126.33 39.7477 126.45 39.4899 126.52 39.1676H126.641V41.5525H126.504C126.407 41.1496 126.276 40.8623 126.109 40.6904C125.948 40.5185 125.725 40.4326 125.441 40.4326H125.247V43.0188H125.553C126.048 43.0188 126.466 42.8711 126.81 42.5757C127.159 42.2803 127.398 41.9016 127.527 41.4397H127.688L127.624 43.1961H123.201V43.0188H123.676V37.7335H123.201V37.5562Z" fill="black"/>
</svg>
